<mxfile host="app.diagrams.net" modified="2021-09-14T21:49:30.173Z" agent="5.0 (Windows NT 10.0; Win64; x64) AppleWebKit/537.36 (KHTML, like Gecko) Chrome/92.0.4515.131 Safari/537.36 OPR/78.0.4093.186" etag="0DxUwnny8kSa7gtWhLvs" version="15.2.5" type="github">
  <diagram id="pOYGuCWqHJCgRfeRceKm" name="Page-1">
    <mxGraphModel dx="1378" dy="805" grid="1" gridSize="10" guides="1" tooltips="1" connect="1" arrows="1" fold="1" page="1" pageScale="1" pageWidth="827" pageHeight="1169" math="0" shadow="0">
      <root>
        <mxCell id="0" />
        <mxCell id="1" parent="0" />
        <mxCell id="mHWNZAEi7Nw2Nx78XrOC-36" value="C_Marker" style="swimlane;fontStyle=1;align=center;verticalAlign=top;childLayout=stackLayout;horizontal=1;startSize=26;horizontalStack=0;resizeParent=1;resizeParentMax=0;resizeLast=0;collapsible=1;marginBottom=0;" parent="1" vertex="1">
          <mxGeometry x="60" y="220" width="340" height="112" as="geometry" />
        </mxCell>
        <mxCell id="mHWNZAEi7Nw2Nx78XrOC-61" value="# marker color: string" style="text;strokeColor=#d6b656;fillColor=#fff2cc;align=left;verticalAlign=top;spacingLeft=4;spacingRight=4;overflow=hidden;rotatable=0;points=[[0,0.5],[1,0.5]];portConstraint=eastwest;" parent="mHWNZAEi7Nw2Nx78XrOC-36" vertex="1">
          <mxGeometry y="26" width="340" height="26" as="geometry" />
        </mxCell>
        <mxCell id="mHWNZAEi7Nw2Nx78XrOC-40" value="" style="line;strokeWidth=1;fillColor=none;align=left;verticalAlign=middle;spacingTop=-1;spacingLeft=3;spacingRight=3;rotatable=0;labelPosition=right;points=[];portConstraint=eastwest;" parent="mHWNZAEi7Nw2Nx78XrOC-36" vertex="1">
          <mxGeometry y="52" width="340" height="8" as="geometry" />
        </mxCell>
        <mxCell id="7Lw_kb0NKTZw8c6JRxP8-1" value="+ C_Marker():" style="text;strokeColor=#d79b00;fillColor=#ffe6cc;align=left;verticalAlign=top;spacingLeft=4;spacingRight=4;overflow=hidden;rotatable=0;points=[[0,0.5],[1,0.5]];portConstraint=eastwest;" vertex="1" parent="mHWNZAEi7Nw2Nx78XrOC-36">
          <mxGeometry y="60" width="340" height="26" as="geometry" />
        </mxCell>
        <mxCell id="mHWNZAEi7Nw2Nx78XrOC-74" value="+ C_Marker(string):" style="text;strokeColor=#d79b00;fillColor=#ffe6cc;align=left;verticalAlign=top;spacingLeft=4;spacingRight=4;overflow=hidden;rotatable=0;points=[[0,0.5],[1,0.5]];portConstraint=eastwest;" parent="mHWNZAEi7Nw2Nx78XrOC-36" vertex="1">
          <mxGeometry y="86" width="340" height="26" as="geometry" />
        </mxCell>
        <mxCell id="mHWNZAEi7Nw2Nx78XrOC-90" style="edgeStyle=orthogonalEdgeStyle;rounded=0;orthogonalLoop=1;jettySize=auto;html=1;entryX=0;entryY=0.5;entryDx=0;entryDy=0;exitX=1;exitY=0;exitDx=0;exitDy=0;" parent="1" source="mHWNZAEi7Nw2Nx78XrOC-51" target="mHWNZAEi7Nw2Nx78XrOC-102" edge="1">
          <mxGeometry relative="1" as="geometry">
            <mxPoint x="840" y="113" as="sourcePoint" />
            <mxPoint x="1020" y="249" as="targetPoint" />
            <Array as="points">
              <mxPoint x="870" y="40" />
              <mxPoint x="870" y="249" />
            </Array>
          </mxGeometry>
        </mxCell>
        <mxCell id="mHWNZAEi7Nw2Nx78XrOC-51" value="C_Marker_Black" style="swimlane;fontStyle=1;align=center;verticalAlign=top;childLayout=stackLayout;horizontal=1;startSize=26;horizontalStack=0;resizeParent=1;resizeParentMax=0;resizeLast=0;collapsible=1;marginBottom=0;" parent="1" vertex="1">
          <mxGeometry x="440" y="40" width="340" height="112" as="geometry" />
        </mxCell>
        <mxCell id="mHWNZAEi7Nw2Nx78XrOC-53" value="" style="line;strokeWidth=1;fillColor=none;align=left;verticalAlign=middle;spacingTop=-1;spacingLeft=3;spacingRight=3;rotatable=0;labelPosition=right;points=[];portConstraint=eastwest;" parent="mHWNZAEi7Nw2Nx78XrOC-51" vertex="1">
          <mxGeometry y="26" width="340" height="8" as="geometry" />
        </mxCell>
        <mxCell id="7Lw_kb0NKTZw8c6JRxP8-2" value="+ C_Marker_Black():" style="text;strokeColor=#d79b00;fillColor=#ffe6cc;align=left;verticalAlign=top;spacingLeft=4;spacingRight=4;overflow=hidden;rotatable=0;points=[[0,0.5],[1,0.5]];portConstraint=eastwest;" vertex="1" parent="mHWNZAEi7Nw2Nx78XrOC-51">
          <mxGeometry y="34" width="340" height="26" as="geometry" />
        </mxCell>
        <mxCell id="mHWNZAEi7Nw2Nx78XrOC-55" value="+ C_Marker_Black(string):" style="text;strokeColor=#d79b00;fillColor=#ffe6cc;align=left;verticalAlign=top;spacingLeft=4;spacingRight=4;overflow=hidden;rotatable=0;points=[[0,0.5],[1,0.5]];portConstraint=eastwest;" parent="mHWNZAEi7Nw2Nx78XrOC-51" vertex="1">
          <mxGeometry y="60" width="340" height="26" as="geometry" />
        </mxCell>
        <mxCell id="mHWNZAEi7Nw2Nx78XrOC-58" value="+ operator &lt;&lt; (const C_Marker_Black): C_Marker_Black" style="text;strokeColor=#82b366;fillColor=#d5e8d4;align=left;verticalAlign=top;spacingLeft=4;spacingRight=4;overflow=hidden;rotatable=0;points=[[0,0.5],[1,0.5]];portConstraint=eastwest;" parent="mHWNZAEi7Nw2Nx78XrOC-51" vertex="1">
          <mxGeometry y="86" width="340" height="26" as="geometry" />
        </mxCell>
        <mxCell id="mHWNZAEi7Nw2Nx78XrOC-62" value="C_Marker_Red" style="swimlane;fontStyle=1;align=center;verticalAlign=top;childLayout=stackLayout;horizontal=1;startSize=26;horizontalStack=0;resizeParent=1;resizeParentMax=0;resizeLast=0;collapsible=1;marginBottom=0;" parent="1" vertex="1">
          <mxGeometry x="460" y="200" width="340" height="112" as="geometry" />
        </mxCell>
        <mxCell id="mHWNZAEi7Nw2Nx78XrOC-63" value="" style="line;strokeWidth=1;fillColor=none;align=left;verticalAlign=middle;spacingTop=-1;spacingLeft=3;spacingRight=3;rotatable=0;labelPosition=right;points=[];portConstraint=eastwest;" parent="mHWNZAEi7Nw2Nx78XrOC-62" vertex="1">
          <mxGeometry y="26" width="340" height="8" as="geometry" />
        </mxCell>
        <mxCell id="7Lw_kb0NKTZw8c6JRxP8-3" value="+ C_Marker_Red():" style="text;strokeColor=#d79b00;fillColor=#ffe6cc;align=left;verticalAlign=top;spacingLeft=4;spacingRight=4;overflow=hidden;rotatable=0;points=[[0,0.5],[1,0.5]];portConstraint=eastwest;" vertex="1" parent="mHWNZAEi7Nw2Nx78XrOC-62">
          <mxGeometry y="34" width="340" height="26" as="geometry" />
        </mxCell>
        <mxCell id="mHWNZAEi7Nw2Nx78XrOC-64" value="+ C_Marker_Red(string):" style="text;strokeColor=#d79b00;fillColor=#ffe6cc;align=left;verticalAlign=top;spacingLeft=4;spacingRight=4;overflow=hidden;rotatable=0;points=[[0,0.5],[1,0.5]];portConstraint=eastwest;" parent="mHWNZAEi7Nw2Nx78XrOC-62" vertex="1">
          <mxGeometry y="60" width="340" height="26" as="geometry" />
        </mxCell>
        <mxCell id="mHWNZAEi7Nw2Nx78XrOC-65" value="+ operator &lt;&lt; (const C_Marker_Red): C_Marker_Red" style="text;strokeColor=#82b366;fillColor=#d5e8d4;align=left;verticalAlign=top;spacingLeft=4;spacingRight=4;overflow=hidden;rotatable=0;points=[[0,0.5],[1,0.5]];portConstraint=eastwest;" parent="mHWNZAEi7Nw2Nx78XrOC-62" vertex="1">
          <mxGeometry y="86" width="340" height="26" as="geometry" />
        </mxCell>
        <mxCell id="mHWNZAEi7Nw2Nx78XrOC-92" style="edgeStyle=orthogonalEdgeStyle;rounded=0;orthogonalLoop=1;jettySize=auto;html=1;entryX=0;entryY=0.5;entryDx=0;entryDy=0;" parent="1" source="mHWNZAEi7Nw2Nx78XrOC-66" target="mHWNZAEi7Nw2Nx78XrOC-104" edge="1">
          <mxGeometry relative="1" as="geometry">
            <mxPoint x="939" y="301" as="targetPoint" />
            <Array as="points">
              <mxPoint x="610" y="330" />
              <mxPoint x="870" y="330" />
              <mxPoint x="870" y="301" />
            </Array>
          </mxGeometry>
        </mxCell>
        <mxCell id="mHWNZAEi7Nw2Nx78XrOC-66" value="C_Marker_Green" style="swimlane;fontStyle=1;align=center;verticalAlign=top;childLayout=stackLayout;horizontal=1;startSize=26;horizontalStack=0;resizeParent=1;resizeParentMax=0;resizeLast=0;collapsible=1;marginBottom=0;" parent="1" vertex="1">
          <mxGeometry x="440" y="400" width="340" height="112" as="geometry" />
        </mxCell>
        <mxCell id="mHWNZAEi7Nw2Nx78XrOC-67" value="" style="line;strokeWidth=1;fillColor=none;align=left;verticalAlign=middle;spacingTop=-1;spacingLeft=3;spacingRight=3;rotatable=0;labelPosition=right;points=[];portConstraint=eastwest;" parent="mHWNZAEi7Nw2Nx78XrOC-66" vertex="1">
          <mxGeometry y="26" width="340" height="8" as="geometry" />
        </mxCell>
        <mxCell id="7Lw_kb0NKTZw8c6JRxP8-4" value="+ C_Marker_Green():" style="text;strokeColor=#d79b00;fillColor=#ffe6cc;align=left;verticalAlign=top;spacingLeft=4;spacingRight=4;overflow=hidden;rotatable=0;points=[[0,0.5],[1,0.5]];portConstraint=eastwest;" vertex="1" parent="mHWNZAEi7Nw2Nx78XrOC-66">
          <mxGeometry y="34" width="340" height="26" as="geometry" />
        </mxCell>
        <mxCell id="mHWNZAEi7Nw2Nx78XrOC-68" value="+ C_Marker_Green(string):" style="text;strokeColor=#d79b00;fillColor=#ffe6cc;align=left;verticalAlign=top;spacingLeft=4;spacingRight=4;overflow=hidden;rotatable=0;points=[[0,0.5],[1,0.5]];portConstraint=eastwest;" parent="mHWNZAEi7Nw2Nx78XrOC-66" vertex="1">
          <mxGeometry y="60" width="340" height="26" as="geometry" />
        </mxCell>
        <mxCell id="mHWNZAEi7Nw2Nx78XrOC-69" value="+ operator &lt;&lt; (const C_Marker_Green): C_Marker_Green" style="text;strokeColor=#82b366;fillColor=#d5e8d4;align=left;verticalAlign=top;spacingLeft=4;spacingRight=4;overflow=hidden;rotatable=0;points=[[0,0.5],[1,0.5]];portConstraint=eastwest;" parent="mHWNZAEi7Nw2Nx78XrOC-66" vertex="1">
          <mxGeometry y="86" width="340" height="26" as="geometry" />
        </mxCell>
        <mxCell id="mHWNZAEi7Nw2Nx78XrOC-72" value="" style="endArrow=block;dashed=1;endFill=0;endSize=12;html=1;exitX=0.5;exitY=0;exitDx=0;exitDy=0;" parent="1" source="mHWNZAEi7Nw2Nx78XrOC-51" edge="1">
          <mxGeometry width="160" relative="1" as="geometry">
            <mxPoint x="70" y="190" as="sourcePoint" />
            <mxPoint x="160" y="208" as="targetPoint" />
            <Array as="points">
              <mxPoint x="340" y="40" />
              <mxPoint x="160" y="40" />
            </Array>
          </mxGeometry>
        </mxCell>
        <mxCell id="mHWNZAEi7Nw2Nx78XrOC-73" value="" style="endArrow=block;dashed=1;endFill=0;endSize=12;html=1;exitX=0.421;exitY=-0.023;exitDx=0;exitDy=0;exitPerimeter=0;" parent="1" source="mHWNZAEi7Nw2Nx78XrOC-62" edge="1">
          <mxGeometry width="160" relative="1" as="geometry">
            <mxPoint x="620" y="50" as="sourcePoint" />
            <mxPoint x="199" y="210" as="targetPoint" />
            <Array as="points">
              <mxPoint x="603" y="160" />
              <mxPoint x="390" y="160" />
              <mxPoint x="199" y="160" />
            </Array>
          </mxGeometry>
        </mxCell>
        <mxCell id="mHWNZAEi7Nw2Nx78XrOC-75" value="" style="endArrow=block;dashed=1;endFill=0;endSize=12;html=1;exitX=0.471;exitY=-0.035;exitDx=0;exitDy=0;exitPerimeter=0;entryX=0.553;entryY=0;entryDx=0;entryDy=0;entryPerimeter=0;" parent="1" source="mHWNZAEi7Nw2Nx78XrOC-66" target="mHWNZAEi7Nw2Nx78XrOC-36" edge="1">
          <mxGeometry width="160" relative="1" as="geometry">
            <mxPoint x="613.1399999999999" y="208.02200000000005" as="sourcePoint" />
            <mxPoint x="209" y="220" as="targetPoint" />
            <Array as="points">
              <mxPoint x="600" y="360" />
              <mxPoint x="440" y="360" />
              <mxPoint x="440" y="170" />
              <mxPoint x="248" y="170" />
            </Array>
          </mxGeometry>
        </mxCell>
        <mxCell id="mHWNZAEi7Nw2Nx78XrOC-76" value="C_Board" style="swimlane;fontStyle=1;align=center;verticalAlign=top;childLayout=stackLayout;horizontal=1;startSize=26;horizontalStack=0;resizeParent=1;resizeParentMax=0;resizeLast=0;collapsible=1;marginBottom=0;" parent="1" vertex="1">
          <mxGeometry x="440" y="660" width="340" height="86" as="geometry" />
        </mxCell>
        <mxCell id="mHWNZAEi7Nw2Nx78XrOC-108" value="- human: vector&lt;C_Human&gt;" style="text;strokeColor=#d6b656;fillColor=#fff2cc;align=left;verticalAlign=top;spacingLeft=4;spacingRight=4;overflow=hidden;rotatable=0;points=[[0,0.5],[1,0.5]];portConstraint=eastwest;" parent="mHWNZAEi7Nw2Nx78XrOC-76" vertex="1">
          <mxGeometry y="26" width="340" height="26" as="geometry" />
        </mxCell>
        <mxCell id="mHWNZAEi7Nw2Nx78XrOC-79" value="" style="line;strokeWidth=1;fillColor=none;align=left;verticalAlign=middle;spacingTop=-1;spacingLeft=3;spacingRight=3;rotatable=0;labelPosition=right;points=[];portConstraint=eastwest;" parent="mHWNZAEi7Nw2Nx78XrOC-76" vertex="1">
          <mxGeometry y="52" width="340" height="8" as="geometry" />
        </mxCell>
        <mxCell id="mHWNZAEi7Nw2Nx78XrOC-82" value="+ Human_writing_on_the_board( vector&lt;C_Human&gt;): void" style="text;strokeColor=#6c8ebf;fillColor=#dae8fc;align=left;verticalAlign=top;spacingLeft=4;spacingRight=4;overflow=hidden;rotatable=0;points=[[0,0.5],[1,0.5]];portConstraint=eastwest;" parent="mHWNZAEi7Nw2Nx78XrOC-76" vertex="1">
          <mxGeometry y="60" width="340" height="26" as="geometry" />
        </mxCell>
        <mxCell id="mHWNZAEi7Nw2Nx78XrOC-91" style="edgeStyle=orthogonalEdgeStyle;rounded=0;orthogonalLoop=1;jettySize=auto;html=1;entryX=0;entryY=0.5;entryDx=0;entryDy=0;exitX=1;exitY=0.25;exitDx=0;exitDy=0;" parent="1" source="mHWNZAEi7Nw2Nx78XrOC-62" target="mHWNZAEi7Nw2Nx78XrOC-103" edge="1">
          <mxGeometry relative="1" as="geometry">
            <mxPoint x="940" y="275" as="targetPoint" />
          </mxGeometry>
        </mxCell>
        <mxCell id="mHWNZAEi7Nw2Nx78XrOC-110" style="edgeStyle=orthogonalEdgeStyle;rounded=0;orthogonalLoop=1;jettySize=auto;html=1;entryX=1;entryY=0.5;entryDx=0;entryDy=0;exitX=1.003;exitY=0.054;exitDx=0;exitDy=0;exitPerimeter=0;" parent="1" source="mHWNZAEi7Nw2Nx78XrOC-95" target="mHWNZAEi7Nw2Nx78XrOC-108" edge="1">
          <mxGeometry relative="1" as="geometry">
            <mxPoint x="1430" y="320" as="targetPoint" />
          </mxGeometry>
        </mxCell>
        <mxCell id="mHWNZAEi7Nw2Nx78XrOC-95" value="C_Human" style="swimlane;fontStyle=1;align=center;verticalAlign=top;childLayout=stackLayout;horizontal=1;startSize=26;horizontalStack=0;resizeParent=1;resizeParentMax=0;resizeLast=0;collapsible=1;marginBottom=0;" parent="1" vertex="1">
          <mxGeometry x="901" y="210" width="340" height="268" as="geometry" />
        </mxCell>
        <mxCell id="mHWNZAEi7Nw2Nx78XrOC-102" value="- marker black: vector&lt;C_Marker_Black&gt;" style="text;strokeColor=#d6b656;fillColor=#fff2cc;align=left;verticalAlign=top;spacingLeft=4;spacingRight=4;overflow=hidden;rotatable=0;points=[[0,0.5],[1,0.5]];portConstraint=eastwest;" parent="mHWNZAEi7Nw2Nx78XrOC-95" vertex="1">
          <mxGeometry y="26" width="340" height="26" as="geometry" />
        </mxCell>
        <mxCell id="mHWNZAEi7Nw2Nx78XrOC-103" value="- marker red: vector&lt;C_Marker_Red&gt;" style="text;strokeColor=#d6b656;fillColor=#fff2cc;align=left;verticalAlign=top;spacingLeft=4;spacingRight=4;overflow=hidden;rotatable=0;points=[[0,0.5],[1,0.5]];portConstraint=eastwest;" parent="mHWNZAEi7Nw2Nx78XrOC-95" vertex="1">
          <mxGeometry y="52" width="340" height="26" as="geometry" />
        </mxCell>
        <mxCell id="mHWNZAEi7Nw2Nx78XrOC-104" value="- marker green: vector&lt;C_Marker_Green&gt;" style="text;strokeColor=#d6b656;fillColor=#fff2cc;align=left;verticalAlign=top;spacingLeft=4;spacingRight=4;overflow=hidden;rotatable=0;points=[[0,0.5],[1,0.5]];portConstraint=eastwest;" parent="mHWNZAEi7Nw2Nx78XrOC-95" vertex="1">
          <mxGeometry y="78" width="340" height="26" as="geometry" />
        </mxCell>
        <mxCell id="7Lw_kb0NKTZw8c6JRxP8-5" value="-  writing on the board: string" style="text;strokeColor=#d6b656;fillColor=#fff2cc;align=left;verticalAlign=top;spacingLeft=4;spacingRight=4;overflow=hidden;rotatable=0;points=[[0,0.5],[1,0.5]];portConstraint=eastwest;" vertex="1" parent="mHWNZAEi7Nw2Nx78XrOC-95">
          <mxGeometry y="104" width="340" height="26" as="geometry" />
        </mxCell>
        <mxCell id="mHWNZAEi7Nw2Nx78XrOC-99" value="" style="line;strokeWidth=1;fillColor=none;align=left;verticalAlign=middle;spacingTop=-1;spacingLeft=3;spacingRight=3;rotatable=0;labelPosition=right;points=[];portConstraint=eastwest;" parent="mHWNZAEi7Nw2Nx78XrOC-95" vertex="1">
          <mxGeometry y="130" width="340" height="8" as="geometry" />
        </mxCell>
        <mxCell id="mHWNZAEi7Nw2Nx78XrOC-100" value="+ operator &lt;&lt; (const C_Human): C_Human" style="text;strokeColor=#82b366;fillColor=#d5e8d4;align=left;verticalAlign=top;spacingLeft=4;spacingRight=4;overflow=hidden;rotatable=0;points=[[0,0.5],[1,0.5]];portConstraint=eastwest;" parent="mHWNZAEi7Nw2Nx78XrOC-95" vertex="1">
          <mxGeometry y="138" width="340" height="26" as="geometry" />
        </mxCell>
        <mxCell id="mHWNZAEi7Nw2Nx78XrOC-101" value="+ Take_marker(vector&lt;C_Marker_Black&gt;): void" style="text;strokeColor=#6c8ebf;fillColor=#dae8fc;align=left;verticalAlign=top;spacingLeft=4;spacingRight=4;overflow=hidden;rotatable=0;points=[[0,0.5],[1,0.5]];portConstraint=eastwest;" parent="mHWNZAEi7Nw2Nx78XrOC-95" vertex="1">
          <mxGeometry y="164" width="340" height="26" as="geometry" />
        </mxCell>
        <mxCell id="7Lw_kb0NKTZw8c6JRxP8-6" value="+ Take_marker(vector&lt;C_Marker_Red&gt;): void" style="text;strokeColor=#6c8ebf;fillColor=#dae8fc;align=left;verticalAlign=top;spacingLeft=4;spacingRight=4;overflow=hidden;rotatable=0;points=[[0,0.5],[1,0.5]];portConstraint=eastwest;" vertex="1" parent="mHWNZAEi7Nw2Nx78XrOC-95">
          <mxGeometry y="190" width="340" height="26" as="geometry" />
        </mxCell>
        <mxCell id="7Lw_kb0NKTZw8c6JRxP8-7" value="+ Take_marker(vector&lt;C_Marker_Green&gt;): void" style="text;strokeColor=#6c8ebf;fillColor=#dae8fc;align=left;verticalAlign=top;spacingLeft=4;spacingRight=4;overflow=hidden;rotatable=0;points=[[0,0.5],[1,0.5]];portConstraint=eastwest;" vertex="1" parent="mHWNZAEi7Nw2Nx78XrOC-95">
          <mxGeometry y="216" width="340" height="26" as="geometry" />
        </mxCell>
        <mxCell id="7Lw_kb0NKTZw8c6JRxP8-8" value="+ Write_in_marker(string): void" style="text;strokeColor=#6c8ebf;fillColor=#dae8fc;align=left;verticalAlign=top;spacingLeft=4;spacingRight=4;overflow=hidden;rotatable=0;points=[[0,0.5],[1,0.5]];portConstraint=eastwest;" vertex="1" parent="mHWNZAEi7Nw2Nx78XrOC-95">
          <mxGeometry y="242" width="340" height="26" as="geometry" />
        </mxCell>
      </root>
    </mxGraphModel>
  </diagram>
</mxfile>
